<svg width="193" height="193" viewBox="0 0 193 193" fill="none" xmlns="http://www.w3.org/2000/svg">
<g filter="url(#filter0_d_29_3156)">
<rect x="81.3545" y="54" width="63.8409" height="63.8409" rx="7.09344" transform="rotate(6.61529 81.3545 54)" fill="#D6BBFB"/>
<path d="M107.451 72.9116C108.287 72.91 109.093 73.2242 109.707 73.7912C110.321 74.3582 110.698 75.1363 110.763 75.9696L110.773 76.2641L110.761 76.4454L109.353 88.5801C109.304 89.0047 109.413 89.4326 109.658 89.7826C109.903 90.1326 110.269 90.3804 110.685 90.479L110.886 90.5147L122.674 91.8818C123.593 91.9884 124.433 92.456 125.008 93.1816C125.583 93.9072 125.846 94.8314 125.739 95.7509C125.724 95.8828 125.693 96.0125 125.648 96.1375C124.608 99.0502 122.811 101.634 120.443 103.624C118.075 105.614 115.221 106.939 112.173 107.464C109.124 107.988 105.991 107.693 103.095 106.608C100.198 105.523 97.6416 103.688 95.6874 101.291C93.7332 98.8929 92.4513 96.019 91.9731 92.963C91.4949 89.907 91.8374 86.7789 92.9658 83.8989C94.0941 81.0189 95.9676 78.4905 98.3944 76.5727C100.821 74.6548 103.714 73.4165 106.777 72.9844L107.259 72.9226L107.451 72.9116Z" fill="white"/>
<path d="M114.328 75.9807L113.222 85.5151C113.169 85.9749 113.301 86.437 113.588 86.7998C113.875 87.1626 114.295 87.3964 114.755 87.4497L124.289 88.5555C124.566 88.5875 124.847 88.5527 125.108 88.4539C125.369 88.3551 125.602 88.1952 125.789 87.9876C125.975 87.78 126.109 87.5308 126.179 87.2608C126.249 86.9909 126.254 86.708 126.192 86.436C125.615 83.8907 124.474 81.5073 122.853 79.4614C121.233 77.4154 119.174 75.759 116.829 74.614C116.578 74.4913 116.301 74.4306 116.022 74.4369C115.743 74.4433 115.47 74.5164 115.225 74.6503C114.98 74.7842 114.771 74.9749 114.615 75.2064C114.459 75.4379 114.36 75.7034 114.328 75.9807Z" fill="white"/>
</g>
<defs>
<filter id="filter0_d_29_3156" x="-0.287896" y="-0.554994" width="193.81" height="193.809" filterUnits="userSpaceOnUse" color-interpolation-filters="sRGB">
<feFlood flood-opacity="0" result="BackgroundImageFix"/>
<feColorMatrix in="SourceAlpha" type="matrix" values="0 0 0 0 0 0 0 0 0 0 0 0 0 0 0 0 0 0 127 0" result="hardAlpha"/>
<feMorphology radius="3.48223" operator="dilate" in="SourceAlpha" result="effect1_dropShadow_29_3156"/>
<feOffset dx="-12.7682" dy="6.96447"/>
<feGaussianBlur stdDeviation="29.0186"/>
<feComposite in2="hardAlpha" operator="out"/>
<feColorMatrix type="matrix" values="0 0 0 0 0 0 0 0 0 0 0 0 0 0 0 0 0 0 0.1 0"/>
<feBlend mode="normal" in2="BackgroundImageFix" result="effect1_dropShadow_29_3156"/>
<feBlend mode="normal" in="SourceGraphic" in2="effect1_dropShadow_29_3156" result="shape"/>
</filter>
</defs>
</svg>
