<svg width="195" height="195" viewBox="0 0 195 195" fill="none" xmlns="http://www.w3.org/2000/svg">
<g filter="url(#filter0_d_29_3148)">
<rect x="74" y="64.0967" width="63.8409" height="63.8409" rx="7.09344" transform="rotate(-9.09969 74 64.0967)" fill="#7F56D9"/>
<g clip-path="url(#clip0_29_3148)">
<path d="M107.127 101.135L105.708 92.2724C105.645 91.8806 105.429 91.5299 105.108 91.2972C104.786 91.0646 104.386 90.9692 103.994 91.0319L98.0859 91.9782C97.6942 92.0409 97.3434 92.2567 97.1108 92.5781C96.8782 92.8994 96.7827 93.3001 96.8455 93.6918L98.2649 102.554C98.3276 102.946 98.5434 103.296 98.8648 103.529C99.1862 103.762 99.5868 103.857 99.9785 103.794M107.127 101.135C107.19 101.526 107.094 101.927 106.862 102.248C106.629 102.57 106.278 102.785 105.887 102.848L99.9785 103.794M107.127 101.135C107.19 101.526 107.406 101.877 107.727 102.11C108.048 102.342 108.449 102.438 108.841 102.375L114.749 101.429C115.14 101.366 115.491 101.15 115.724 100.829C115.957 100.507 116.052 100.107 115.989 99.7151M107.127 101.135L104.761 86.3642C104.699 85.9725 104.794 85.5719 105.027 85.2505C105.259 84.9292 105.61 84.7134 106.002 84.6507L111.91 83.7044C112.302 83.6416 112.702 83.7371 113.024 83.9697C113.345 84.2023 113.561 84.5531 113.623 84.9448L115.989 99.7151M99.9785 103.794L120.657 100.482M115.989 99.7151C116.052 100.107 116.268 100.458 116.589 100.69C116.91 100.923 117.311 101.018 117.703 100.956L123.611 100.009C124.003 99.9465 124.353 99.7307 124.586 99.4093C124.819 99.088 124.914 98.6874 124.851 98.2956L121.539 77.6173C121.477 77.2255 121.261 76.8748 120.939 76.6421C120.618 76.4095 120.217 76.3141 119.826 76.3768L113.918 77.3231C113.526 77.3859 113.175 77.6016 112.943 77.923C112.71 78.2444 112.614 78.645 112.677 79.0367L115.989 99.7151Z" stroke="white" stroke-width="2.9917" stroke-linecap="round" stroke-linejoin="round"/>
</g>
</g>
<defs>
<filter id="filter0_d_29_3148" x="-0.287652" y="-0.554872" width="196.173" height="196.173" filterUnits="userSpaceOnUse" color-interpolation-filters="sRGB">
<feFlood flood-opacity="0" result="BackgroundImageFix"/>
<feColorMatrix in="SourceAlpha" type="matrix" values="0 0 0 0 0 0 0 0 0 0 0 0 0 0 0 0 0 0 127 0" result="hardAlpha"/>
<feMorphology radius="3.48223" operator="dilate" in="SourceAlpha" result="effect1_dropShadow_29_3148"/>
<feOffset dx="-12.7682" dy="6.96447"/>
<feGaussianBlur stdDeviation="29.0186"/>
<feComposite in2="hardAlpha" operator="out"/>
<feColorMatrix type="matrix" values="0 0 0 0 0 0 0 0 0 0 0 0 0 0 0 0 0 0 0.1 0"/>
<feBlend mode="normal" in2="BackgroundImageFix" result="effect1_dropShadow_29_3148"/>
<feBlend mode="normal" in="SourceGraphic" in2="effect1_dropShadow_29_3148" result="shape"/>
</filter>
<clipPath id="clip0_29_3148">
<rect width="35.9004" height="35.9004" fill="white" transform="translate(89.3389 75.2002) rotate(-9.09969)"/>
</clipPath>
</defs>
</svg>
