<svg width="1440" height="700" viewBox="0 0 1440 700" fill="none" xmlns="http://www.w3.org/2000/svg">
<g clip-path="url(#clip0_29_2786)">
<rect width="1440" height="700" fill="#7F56D9"/>
<g filter="url(#filter0_d_29_2786)">
<path d="M-39.8189 85.3606L-27.2943 119.609C-24.404 127.503 -16.6344 132.755 -8.27433 131.916C15.8736 129.523 39.4932 143.602 48.2263 167.439C56.9593 191.276 47.9777 217.257 27.9942 231.025C21.0637 235.78 18.5153 244.824 21.4056 252.718L36.3854 293.71C39.2757 301.604 47.0453 306.857 55.4054 306.018C79.5534 303.624 103.173 317.703 111.906 341.54C120.639 365.377 111.657 391.359 91.674 405.127C84.7435 409.882 82.195 418.926 85.0853 426.819L103.08 475.986C105.97 483.879 113.74 489.132 122.1 488.293C146.248 485.9 169.867 499.978 178.6 523.815C187.333 547.652 178.352 573.634 158.368 587.402C151.438 592.157 148.889 601.201 151.78 609.095L168.282 654.158C171.173 662.052 178.942 667.305 187.302 666.465C211.45 664.072 235.07 678.151 243.803 701.988C252.536 725.825 243.554 751.807 223.571 765.575C216.64 770.33 214.092 779.373 216.982 787.267L233.485 832.331C236.375 840.225 244.145 845.477 252.505 844.638C276.653 842.245 300.272 856.324 309.006 880.161C317.739 903.998 308.757 929.98 288.773 943.747C281.843 948.502 279.295 957.546 282.185 965.44L294.709 999.688C298.283 1009.48 309.13 1014.51 318.92 1010.94L999.6 761.969C1009.39 758.395 1014.42 747.549 1010.85 737.759L676.291 -176.6C672.717 -186.389 661.87 -191.424 652.081 -187.85L-28.5996 61.1505C-38.3893 64.7245 -43.424 75.5709 -39.85 85.3606H-39.8189Z" fill="white"/>
</g>
<g opacity="0.1">
<path d="M95.3062 120.4C93.7523 120.4 92.2916 119.437 91.7322 117.914C91.0174 115.925 92.0119 113.75 94.0009 113.035L696.861 -107.498C698.85 -108.213 701.025 -107.218 701.74 -105.229C702.455 -103.24 701.46 -101.065 699.471 -100.35L96.6115 120.152C96.1764 120.307 95.7413 120.4 95.3062 120.4Z" fill="#4144FD"/>
<path d="M161.97 302.645C160.416 302.645 158.955 301.681 158.395 300.158C157.681 298.169 158.675 295.994 160.664 295.279L763.555 74.7464C765.513 74.0316 767.719 75.0572 768.434 77.0151C769.149 79.0041 768.155 81.1796 766.166 81.8944L163.275 302.427C162.84 302.582 162.405 302.676 161.97 302.676V302.645Z" fill="#4144FD"/>
<path d="M228.633 484.889C227.079 484.889 225.618 483.926 225.059 482.403C224.344 480.414 225.338 478.238 227.327 477.523L830.218 256.991C832.207 256.276 834.383 257.27 835.097 259.259C835.812 261.248 834.818 263.424 832.829 264.139L229.938 484.671C229.503 484.827 229.068 484.92 228.633 484.92V484.889Z" fill="#4144FD"/>
<path d="M295.296 667.164C293.743 667.164 292.282 666.2 291.722 664.677C291.008 662.688 292.002 660.513 293.991 659.798L896.882 439.265C898.871 438.551 901.046 439.545 901.761 441.534C902.476 443.523 901.481 445.699 899.492 446.413L296.602 666.946C296.167 667.101 295.732 667.195 295.296 667.195V667.164Z" fill="#4144FD"/>
<path d="M361.96 849.408C360.406 849.408 358.945 848.445 358.385 846.922C357.671 844.933 358.665 842.757 360.654 842.042L963.545 621.51C965.503 620.795 967.709 621.789 968.424 623.778C969.139 625.767 968.145 627.943 966.156 628.658L363.265 849.19C362.83 849.346 362.395 849.439 361.96 849.439V849.408Z" fill="#4144FD"/>
<path d="M328.643 758.286C327.089 758.286 325.629 757.322 325.069 755.8C324.355 753.811 325.349 751.635 327.338 750.92L930.229 530.388C932.187 529.673 934.393 530.667 935.108 532.656C935.823 534.645 934.828 536.821 932.839 537.536L329.949 758.068C329.514 758.224 329.078 758.317 328.643 758.317V758.286Z" fill="#4144FD"/>
<path d="M195.285 393.767C193.731 393.767 192.271 392.803 191.711 391.28C190.996 389.291 191.991 387.116 193.98 386.401L796.871 165.868C798.829 165.154 801.035 166.148 801.75 168.137C802.465 170.126 801.47 172.302 799.481 173.016L196.59 393.549C196.155 393.705 195.72 393.798 195.285 393.798V393.767Z" fill="#4144FD"/>
<path d="M128.622 211.523C127.068 211.523 125.608 210.56 125.048 209.037C124.334 207.048 125.328 204.872 127.317 204.157L730.208 -16.3753C732.166 -17.0901 734.372 -16.0956 735.087 -14.1065C735.802 -12.1175 734.807 -9.94203 732.818 -9.22722L129.959 211.274C129.524 211.43 129.089 211.523 128.653 211.523H128.622Z" fill="#4144FD"/>
<path d="M261.98 576.042C260.426 576.042 258.966 575.078 258.406 573.556C257.691 571.566 258.686 569.391 260.675 568.676L863.566 348.144C865.555 347.429 867.73 348.423 868.445 350.412C869.16 352.401 868.165 354.577 866.176 355.292L263.286 575.824C262.85 575.98 262.415 576.073 261.98 576.073V576.042Z" fill="#4144FD"/>
<path d="M403.014 961.632C401.46 961.632 400 960.668 399.44 959.146L51.3616 7.52359C50.6468 5.53457 51.6413 3.35908 53.6303 2.64428C55.6193 1.92947 57.7948 2.92399 58.5096 4.91301L406.588 956.535C407.303 958.524 406.309 960.7 404.319 961.414C403.884 961.57 403.449 961.663 403.014 961.663V961.632Z" fill="#E334B7"/>
</g>
<g filter="url(#filter1_d_29_2786)">
<path d="M595.591 494.161L559.147 450.154C547.642 436.262 527.053 434.327 513.161 445.832L469.154 482.276C455.262 493.781 453.327 514.37 464.832 528.262L501.276 572.269C512.781 586.161 533.369 588.096 547.262 576.591L591.268 540.147C605.161 528.642 607.096 508.053 595.591 494.161Z" fill="white"/>
</g>
<path d="M521.151 455.461L477.145 491.906C468.562 499.014 467.366 511.734 474.474 520.317L510.918 564.324C518.026 572.907 530.747 574.103 539.33 566.995L583.337 530.55C591.92 523.442 593.115 510.722 586.007 502.139L549.563 458.132C542.455 449.549 529.735 448.353 521.151 455.461Z" fill="#FF75D4"/>
<path d="M519.954 528.835L513.922 521.381C511.425 518.365 508.617 515.14 505.531 511.708C504.595 510.668 503.139 509.315 501.267 507.651C498.458 505.086 496.447 503.075 495.234 501.653C493.258 499.261 493.466 497.076 495.858 495.135C497.349 493.887 498.77 493.401 500.088 493.679C501.405 493.956 502.896 494.823 504.56 496.314C508.028 499.469 511.772 503.456 515.759 508.241C516.973 509.697 518.706 511.916 520.995 514.897C520.683 512.54 520.995 510.251 521.827 508.067C522.693 505.883 523.872 504.149 525.432 502.867C529.94 499.122 535.383 497.77 541.728 498.81C543.67 499.365 545.75 500.266 547.934 501.48C550.118 502.693 551.748 503.941 552.823 505.224C554.695 507.513 556.186 509.801 557.295 512.124C558.405 514.447 559.064 517.047 559.341 519.89C559.584 522.733 559.272 525.507 558.301 528.211C557.365 530.916 555.631 533.308 553.169 535.354C550.985 537.156 548.662 538.335 546.201 538.89C543.739 539.445 541.381 539.445 539.162 538.821C539.96 540.346 540.48 542.08 540.653 544.091C540.827 546.102 540.341 547.558 539.197 548.494C538.261 549.257 537.29 549.673 536.25 549.673C535.21 549.673 534.308 549.222 533.476 548.216C532.887 547.488 532.297 546.448 531.673 545.096C530.737 543.328 529.836 541.733 528.969 540.311C528.102 538.89 526.923 537.26 525.398 535.458C523.006 532.545 521.203 530.326 519.989 528.801L519.954 528.835ZM549.945 522.525C550.188 519.335 549.009 516.18 546.478 513.129C544.155 510.321 541.416 508.553 538.226 507.755C537.151 507.512 535.973 507.582 534.655 507.963C533.338 508.345 532.228 508.934 531.292 509.697C529.108 511.5 527.79 513.649 527.339 516.18C526.889 518.711 527.478 521.138 529.108 523.565C531.396 526.755 533.442 529.425 535.244 531.609C536.839 532.302 538.677 532.545 540.688 532.406C542.699 532.268 544.398 531.644 545.75 530.5C548.281 528.385 549.668 525.75 549.91 522.56L549.945 522.525Z" fill="white"/>
<g filter="url(#filter2_d_29_2786)">
<path d="M1535.58 420.035C1535.12 420.035 1534.67 419.997 1534.18 419.883L951.712 284.118C950.119 283.739 948.754 282.753 947.92 281.387C947.086 280.022 946.782 278.354 947.161 276.761L1060.25 -208.279C1060.78 -210.592 1062.6 -212.375 1064.95 -212.868C1067.26 -213.361 1069.65 -212.45 1071.09 -210.592L1540.47 410.251C1542.03 412.299 1542.14 415.105 1540.74 417.267C1539.6 419.011 1537.67 420.035 1535.62 420.035H1535.58ZM1117.13 178.084L1196.13 196.515L1132.45 112.287L1117.13 178.084Z" fill="white"/>
</g>
<path d="M1479.53 386.322C1478.88 386.322 1478.2 386.246 1477.52 386.094L978.448 269.745C976.172 269.214 974.2 267.811 972.949 265.801C971.697 263.829 971.318 261.402 971.849 259.127L1068.74 -156.475C1069.54 -159.812 1072.16 -162.391 1075.49 -163.112C1078.83 -163.832 1082.28 -162.543 1084.37 -159.812L1486.54 372.138C1488.78 375.096 1488.93 379.154 1486.89 382.264C1485.22 384.805 1482.45 386.284 1479.49 386.284L1479.53 386.322ZM1079.29 199.701L1276.71 245.74L1117.63 35.3032L1079.29 199.701Z" fill="#FDCF00"/>
<path d="M1175.38 42.0146C1172.73 42.0146 1170.11 40.839 1168.37 38.5636C1165.41 34.6954 1166.13 29.1586 1170 26.2006L1195.9 6.29082C1199.77 3.29487 1205.31 4.05337 1208.26 7.92155C1211.22 11.7897 1210.5 17.3265 1206.63 20.2845L1180.73 40.1943C1179.14 41.4458 1177.24 42.0146 1175.35 42.0146H1175.38Z" fill="#FFA200"/>
<path d="M1217.06 97.3452C1214.41 97.3452 1211.79 96.1695 1210.05 93.8941C1207.09 90.026 1207.81 84.4892 1211.68 81.5312L1237.58 61.6214C1241.45 58.6255 1246.98 59.3839 1249.94 63.2521C1252.9 67.1203 1252.18 72.6571 1248.31 75.6151L1222.41 95.5249C1220.82 96.7763 1218.92 97.3452 1217.02 97.3452H1217.06Z" fill="#FFA200"/>
<path d="M1258.74 152.675C1256.08 152.675 1253.47 151.5 1251.72 149.224C1248.77 145.356 1249.49 139.819 1253.35 136.861L1279.26 116.951C1283.12 113.993 1288.66 114.714 1291.62 118.582C1294.58 122.45 1293.86 127.987 1289.99 130.945L1264.09 150.855C1262.49 152.106 1260.6 152.675 1258.7 152.675H1258.74Z" fill="#FFA200"/>
<path d="M1300.42 208.005C1297.76 208.005 1295.15 206.83 1293.4 204.554C1290.44 200.686 1291.16 195.149 1295.03 192.191L1320.93 172.281C1324.8 169.323 1330.34 170.044 1333.3 173.912C1336.25 177.78 1335.53 183.317 1331.67 186.275L1305.76 206.185C1304.17 207.436 1302.28 208.005 1300.38 208.005H1300.42Z" fill="#FFA200"/>
<path d="M1342.09 263.298C1339.44 263.298 1336.82 262.122 1335.08 259.847C1332.12 255.979 1332.84 250.442 1336.71 247.484L1362.61 227.574C1366.48 224.616 1372.02 225.337 1374.97 229.205C1377.93 233.073 1377.21 238.61 1373.34 241.568L1347.44 261.477C1345.85 262.729 1343.95 263.298 1342.06 263.298H1342.09Z" fill="#FFA200"/>
<path d="M1383.77 318.628C1381.12 318.628 1378.5 317.452 1376.76 315.177C1373.8 311.309 1374.52 305.772 1378.39 302.814L1404.29 282.904C1408.16 279.946 1413.69 280.667 1416.65 284.535C1419.61 288.403 1418.89 293.94 1415.02 296.898L1389.12 316.808C1387.53 318.059 1385.63 318.628 1383.73 318.628H1383.77Z" fill="#FFA200"/>
<g filter="url(#filter3_d_29_2786)">
<path d="M431.475 167.793C433.439 159.471 430.977 150.944 424.893 144.959L370.531 91.115L93.3072 25.6545C76.1418 21.6451 58.9251 32.2752 54.8944 49.4077L41.7295 105.329C39.7658 113.652 41.1746 122.209 45.6588 129.468C50.1431 136.726 57.2142 141.79 65.5156 143.721L342.687 209.029L415.416 185.23C423.532 182.569 429.556 176.04 431.487 167.739L431.475 167.793Z" fill="white"/>
</g>
<path d="M96.2667 48.2695L78.2126 125.015L341.813 187.026L359.867 110.28L96.2667 48.2695Z" fill="#4446F8"/>
<path d="M306.179 157.022L82.9701 104.378L85.4375 93.815L349.005 155.926L346.538 166.489L306.179 157.022Z" fill="#2B2CCF"/>
<path d="M312.3 131.764L89.0588 79.1415L91.4671 68.99L355.034 131.101L352.648 141.285L312.3 131.764Z" fill="#2B2CCF"/>
<path d="M408.813 165.164L389.901 171.39L395.872 146.043L410.045 160.023C411.709 161.649 411.025 164.473 408.835 165.196L408.813 165.164Z" fill="#2B2CCF"/>
<path d="M78.2794 125.019L70.411 123.18C64.6209 121.81 60.9879 116.005 62.3905 110.194L69.0361 81.9352L75.5554 54.2722C76.9252 48.4821 82.7303 44.8491 88.5417 46.2517L96.4101 48.0907L78.3335 125.031L78.2794 125.019Z" fill="#2B2CCF"/>
<path d="M341.738 187.107C334.065 185.281 329.303 177.596 331.129 169.923C332.42 164.37 336.83 160.385 342.041 159.284C337.858 155.936 335.719 150.42 337.011 144.868C338.243 139.727 342.096 135.963 346.844 134.51C343.237 131.114 341.463 126.015 342.695 120.874C344.521 113.201 352.206 108.439 359.879 110.265L395.895 145.934L389.945 171.314C389.945 171.314 341.792 187.118 341.771 187.085L341.738 187.107Z" fill="#FFCF33"/>
<g filter="url(#filter4_d_29_2786)">
<path d="M227.44 466.348C234.305 471.168 238.119 479.038 237.599 487.394L232.988 562.492L72.4598 792.085C62.5092 806.265 42.8853 809.732 28.7047 799.816L-17.5813 767.399C-24.4462 762.579 -29.0575 755.368 -30.5137 747.116C-31.9699 738.864 -30.1323 730.509 -25.313 723.644L135.249 494.189L204.176 464.026C211.873 460.662 220.541 461.529 227.406 466.314L227.44 466.348Z" fill="white"/>
</g>
<path d="M149.094 510.929L-3.67529 729.105L59.8294 773.572L212.598 555.395L149.094 510.929Z" fill="#FFCF33"/>
<path d="M33.2815 754.987L43.5441 762.198L196.236 543.977L185.974 536.766L33.2815 754.987Z" fill="#FFA200"/>
<path d="M12.4092 740.702L22.8105 747.983L175.503 529.762L165.101 522.481L12.4092 740.702Z" fill="#FFA200"/>
<path d="M212.566 483.095L194.641 490.93L215.618 505.631L216.831 486.111C216.97 483.823 214.647 482.193 212.532 483.095H212.566Z" fill="#FFCF33"/>
<path d="M148.979 510.936C144.541 517.281 146.102 526.053 152.446 530.49C157.023 533.715 162.882 533.75 167.424 531.149C166.557 536.315 168.603 541.793 173.18 545.018C177.444 547.999 182.749 548.242 187.152 546.162C186.736 550.981 188.782 555.904 193.046 558.886C199.391 563.324 208.163 561.764 212.601 555.419L215.652 505.666L194.676 490.965C194.676 490.965 149.014 510.936 148.979 510.936Z" fill="#FF75D4"/>
<g filter="url(#filter5_d_29_2786)">
<path d="M617.025 192.64L646.119 143.464C655.304 127.94 650.164 107.909 634.64 98.7245L585.464 69.6302C569.94 60.4455 549.909 65.5847 540.724 81.109L511.63 130.285C502.445 145.809 507.585 165.84 523.109 175.025L572.285 204.119C587.809 213.304 607.84 208.164 617.025 192.64Z" fill="white"/>
</g>
<path d="M628.322 109.416L579.145 80.3218C569.554 74.6472 557.178 77.8224 551.504 87.4138L522.409 136.59C516.735 146.181 519.91 158.557 529.502 164.232L578.678 193.326C588.269 199.001 600.645 195.825 606.319 186.234L635.414 137.058C641.088 127.466 637.913 115.091 628.322 109.416Z" fill="#4446F8"/>
<path d="M586.478 164.724C584.641 164.793 583.15 164.481 582.006 163.822C579.856 162.539 578.296 161.257 577.325 159.939C576.354 158.656 575.765 156.923 575.557 154.808C573.303 155.258 570.703 155.016 567.756 154.149C564.809 153.282 562.243 152.207 560.093 150.925C556.557 148.844 554.234 146.175 553.055 142.915C551.911 139.656 552.431 136.189 554.615 132.479C555.551 130.885 556.869 129.671 558.498 128.839C560.128 128.007 562 127.521 564.115 127.383C566.403 127.279 568.796 127.556 571.257 128.215C573.719 128.874 576.077 129.844 578.365 131.197C579.544 131.89 580.861 132.965 582.248 134.421C583.635 135.843 584.641 137.091 585.23 138.166L586.027 136.813C587.83 133.728 588.35 131.162 587.588 129.151C586.79 127.105 584.745 125.094 581.451 123.153C580.48 122.563 579.405 122.217 578.226 122.043C577.048 121.87 575.661 121.801 574.066 121.766C571.951 121.662 570.217 121.211 568.796 120.379C568.276 120.067 567.998 119.443 567.964 118.438C567.929 117.467 568.068 116.669 568.414 116.115C569.385 114.45 571.015 113.514 573.303 113.237C575.591 112.96 577.984 113.168 580.48 113.861C583.011 114.554 585.126 115.387 586.825 116.392C588.524 117.397 590.292 118.888 592.13 120.865C593.967 122.841 595.25 124.817 596.013 126.793C596.845 129.29 597.157 131.786 596.914 134.317C596.672 136.848 595.874 139.275 594.522 141.598C594.071 142.326 593.378 143.401 592.372 144.822C591.297 146.348 590.465 147.7 589.772 148.81C589.46 149.33 588.94 150.058 588.246 151.029C587.38 152.207 586.756 153.178 586.305 153.906C585.889 154.6 585.819 155.328 586.027 156.125C586.27 156.923 586.721 157.512 587.38 157.928L589.807 159.246C590.431 159.627 590.777 160.147 590.847 160.771C590.916 161.43 590.743 162.089 590.361 162.782C589.633 164.03 588.316 164.689 586.478 164.758V164.724ZM570.772 147.111C572.714 147.561 575.279 147.804 578.434 147.839C579.232 147.007 580.133 145.793 581.139 144.233C578.885 140.905 576.736 138.616 574.69 137.403C572.367 136.016 570.009 135.218 567.686 135.01C565.363 134.802 563.56 135.773 562.278 137.923C561.654 138.998 561.55 140.176 562.035 141.459C562.52 142.742 563.214 143.678 564.185 144.233C566.646 145.689 568.831 146.625 570.807 147.111H570.772Z" fill="white"/>
</g>
<defs>
<filter id="filter0_d_29_2786" x="-43.362" y="-193.724" width="1071.9" height="1219.98" filterUnits="userSpaceOnUse" color-interpolation-filters="sRGB">
<feFlood flood-opacity="0" result="BackgroundImageFix"/>
<feColorMatrix in="SourceAlpha" type="matrix" values="0 0 0 0 0 0 0 0 0 0 0 0 0 0 0 0 0 0 127 0" result="hardAlpha"/>
<feOffset dx="7.08589" dy="4.72392"/>
<feGaussianBlur stdDeviation="4.72392"/>
<feColorMatrix type="matrix" values="0 0 0 0 0.496409 0 0 0 0 0.338412 0 0 0 0 0.849824 0 0 0 1 0"/>
<feBlend mode="normal" in2="BackgroundImageFix" result="effect1_dropShadow_29_2786"/>
<feBlend mode="normal" in="SourceGraphic" in2="effect1_dropShadow_29_2786" result="shape"/>
</filter>
<filter id="filter1_d_29_2786" x="456.354" y="436.418" width="153.401" height="153.401" filterUnits="userSpaceOnUse" color-interpolation-filters="sRGB">
<feFlood flood-opacity="0" result="BackgroundImageFix"/>
<feColorMatrix in="SourceAlpha" type="matrix" values="0 0 0 0 0 0 0 0 0 0 0 0 0 0 0 0 0 0 127 0" result="hardAlpha"/>
<feOffset dx="2.84304" dy="1.90692"/>
<feGaussianBlur stdDeviation="1.90692"/>
<feColorMatrix type="matrix" values="0 0 0 0 0.496409 0 0 0 0 0.338412 0 0 0 0 0.849824 0 0 0 1 0"/>
<feBlend mode="normal" in2="BackgroundImageFix" result="effect1_dropShadow_29_2786"/>
<feBlend mode="normal" in="SourceGraphic" in2="effect1_dropShadow_29_2786" result="shape"/>
</filter>
<filter id="filter2_d_29_2786" x="944.118" y="-218.764" width="617.776" height="656.093" filterUnits="userSpaceOnUse" color-interpolation-filters="sRGB">
<feFlood flood-opacity="0" result="BackgroundImageFix"/>
<feColorMatrix in="SourceAlpha" type="matrix" values="0 0 0 0 0 0 0 0 0 0 0 0 0 0 0 0 0 0 127 0" result="hardAlpha"/>
<feOffset dx="8.64652" dy="5.76435"/>
<feGaussianBlur stdDeviation="5.76435"/>
<feColorMatrix type="matrix" values="0 0 0 0 0.266667 0 0 0 0 0.27451 0 0 0 0 0.972549 0 0 0 1 0"/>
<feBlend mode="normal" in2="BackgroundImageFix" result="effect1_dropShadow_29_2786"/>
<feBlend mode="normal" in="SourceGraphic" in2="effect1_dropShadow_29_2786" result="shape"/>
</filter>
<filter id="filter3_d_29_2786" x="38.1648" y="19.4485" width="412.715" height="205.661" filterUnits="userSpaceOnUse" color-interpolation-filters="sRGB">
<feFlood flood-opacity="0" result="BackgroundImageFix"/>
<feColorMatrix in="SourceAlpha" type="matrix" values="0 0 0 0 0 0 0 0 0 0 0 0 0 0 0 0 0 0 127 0" result="hardAlpha"/>
<feOffset dx="8.02097" dy="5.36035"/>
<feGaussianBlur stdDeviation="5.36035"/>
<feColorMatrix type="matrix" values="0 0 0 0 0 0 0 0 0 0.32549 0 0 0 0 0.678431 0 0 0 0.3 0"/>
<feBlend mode="normal" in2="BackgroundImageFix" result="effect1_dropShadow_29_2786"/>
<feBlend mode="normal" in="SourceGraphic" in2="effect1_dropShadow_29_2786" result="shape"/>
</filter>
<filter id="filter4_d_29_2786" x="-33.635" y="456.73" width="289.726" height="364.551" filterUnits="userSpaceOnUse" color-interpolation-filters="sRGB">
<feFlood flood-opacity="0" result="BackgroundImageFix"/>
<feColorMatrix in="SourceAlpha" type="matrix" values="0 0 0 0 0 0 0 0 0 0 0 0 0 0 0 0 0 0 127 0" result="hardAlpha"/>
<feOffset dx="7.90504" dy="5.27003"/>
<feGaussianBlur stdDeviation="5.27003"/>
<feColorMatrix type="matrix" values="0 0 0 0 0 0 0 0 0 0.32549 0 0 0 0 0.678431 0 0 0 0.3 0"/>
<feBlend mode="normal" in2="BackgroundImageFix" result="effect1_dropShadow_29_2786"/>
<feBlend mode="normal" in="SourceGraphic" in2="effect1_dropShadow_29_2786" result="shape"/>
</filter>
<filter id="filter5_d_29_2786" x="506.103" y="63.1671" width="151.229" height="151.229" filterUnits="userSpaceOnUse" color-interpolation-filters="sRGB">
<feFlood flood-opacity="0" result="BackgroundImageFix"/>
<feColorMatrix in="SourceAlpha" type="matrix" values="0 0 0 0 0 0 0 0 0 0 0 0 0 0 0 0 0 0 127 0" result="hardAlpha"/>
<feOffset dx="2.84304" dy="1.90692"/>
<feGaussianBlur stdDeviation="1.90692"/>
<feColorMatrix type="matrix" values="0 0 0 0 0.168627 0 0 0 0 0.172549 0 0 0 0 0.811765 0 0 0 1 0"/>
<feBlend mode="normal" in2="BackgroundImageFix" result="effect1_dropShadow_29_2786"/>
<feBlend mode="normal" in="SourceGraphic" in2="effect1_dropShadow_29_2786" result="shape"/>
</filter>
<clipPath id="clip0_29_2786">
<rect width="1440" height="700" fill="white"/>
</clipPath>
</defs>
</svg>
