<svg width="173" height="173" viewBox="0 0 173 173" fill="none" xmlns="http://www.w3.org/2000/svg">
<g filter="url(#filter0_d_29_3554)">
<path d="M151.591 69.1609L115.147 25.1543C103.642 11.262 83.0532 9.32667 69.1609 20.8317L25.1542 57.2759C11.2619 68.7809 9.32658 89.3695 20.8316 103.262L57.2759 147.269C68.7809 161.161 89.3695 163.096 103.262 151.591L147.268 115.147C161.161 103.642 163.096 83.0533 151.591 69.1609Z" fill="white"/>
</g>
<path d="M77.1514 30.4612L33.1447 66.9055C24.5615 74.0137 23.3658 86.734 30.474 95.3172L66.9183 139.324C74.0265 147.907 86.7468 149.103 95.33 141.995L139.337 105.55C147.92 98.442 149.115 85.7217 142.007 77.1386L105.563 33.1319C98.4548 24.5488 85.7345 23.353 77.1514 30.4612Z" fill="#FF75D4"/>
<path d="M75.9545 103.835L69.9216 96.381C67.4253 93.3646 64.617 90.1402 61.5312 86.7077C60.5951 85.6676 59.1389 84.3154 57.2667 82.6512C54.4583 80.0855 52.4473 78.0746 51.2339 76.6531C49.2576 74.2608 49.4656 72.0764 51.8579 70.1349C53.3488 68.8867 54.7703 68.4013 56.0878 68.6787C57.4053 68.956 58.8962 69.8228 60.5604 71.3137C64.0275 74.4688 67.772 78.4559 71.7592 83.2406C72.9727 84.6968 74.7063 86.9157 76.9946 89.8974C76.6825 87.5398 76.9946 85.2515 77.8267 83.0672C78.6935 80.8829 79.8723 79.1494 81.4325 77.8665C85.9397 74.122 91.3831 72.7699 97.728 73.81C99.6695 74.3647 101.75 75.2662 103.934 76.4797C106.118 77.6932 107.748 78.9414 108.823 80.2242C110.695 82.5125 112.186 84.8008 113.295 87.1238C114.405 89.4468 115.064 92.0471 115.341 94.8901C115.584 97.7332 115.272 100.507 114.301 103.211C113.365 105.916 111.631 108.308 109.169 110.354C106.985 112.156 104.662 113.335 102.201 113.89C99.7389 114.445 97.3813 114.445 95.1623 113.821C95.9598 115.346 96.4798 117.08 96.6532 119.091C96.8265 121.102 96.3411 122.558 95.197 123.494C94.2608 124.257 93.2901 124.673 92.2499 124.673C91.2098 124.673 90.3083 124.222 89.4762 123.216C88.8868 122.488 88.2974 121.448 87.6733 120.096C86.7372 118.328 85.8358 116.733 84.969 115.311C84.1022 113.89 82.9234 112.26 81.3978 110.458C79.0055 107.545 77.2026 105.326 75.9891 103.801L75.9545 103.835ZM105.945 97.5252C106.188 94.3354 105.009 91.1803 102.478 88.1292C100.155 85.3209 97.4159 83.5526 94.2262 82.7552C93.1514 82.5125 91.9726 82.5818 90.655 82.9632C89.3375 83.3446 88.2281 83.934 87.2919 84.6968C85.1076 86.4997 83.7901 88.6493 83.3394 91.1803C82.8887 93.7113 83.4781 96.1383 85.1077 98.5653C87.396 101.755 89.4415 104.425 91.2445 106.609C92.8393 107.302 94.6769 107.545 96.6879 107.406C98.6988 107.268 100.398 106.644 101.75 105.5C104.281 103.385 105.668 100.75 105.91 97.5598L105.945 97.5252Z" fill="white"/>
<defs>
<filter id="filter0_d_29_3554" x="12.3539" y="11.4178" width="153.401" height="153.401" filterUnits="userSpaceOnUse" color-interpolation-filters="sRGB">
<feFlood flood-opacity="0" result="BackgroundImageFix"/>
<feColorMatrix in="SourceAlpha" type="matrix" values="0 0 0 0 0 0 0 0 0 0 0 0 0 0 0 0 0 0 127 0" result="hardAlpha"/>
<feOffset dx="2.84304" dy="1.90692"/>
<feGaussianBlur stdDeviation="1.90692"/>
<feColorMatrix type="matrix" values="0 0 0 0 0.496409 0 0 0 0 0.338412 0 0 0 0 0.849824 0 0 0 1 0"/>
<feBlend mode="normal" in2="BackgroundImageFix" result="effect1_dropShadow_29_3554"/>
<feBlend mode="normal" in="SourceGraphic" in2="effect1_dropShadow_29_3554" result="shape"/>
</filter>
</defs>
</svg>
