<svg width="168" height="168" viewBox="0 0 168 168" fill="none" xmlns="http://www.w3.org/2000/svg">
<g filter="url(#filter0_d_29_2847)">
<path d="M122.025 139.64L151.119 90.464C160.304 74.9397 155.164 54.9092 139.64 45.7245L90.4639 16.6302C74.9396 7.44552 54.9091 12.5847 45.7244 28.109L16.6301 77.2852C7.44541 92.8095 12.5847 112.84 28.109 122.025L77.2851 151.119C92.8094 160.304 112.84 155.164 122.025 139.64Z" fill="white"/>
</g>
<path d="M133.322 56.4161L84.1454 27.3218C74.554 21.6472 62.1784 24.8224 56.5038 34.4138L27.4095 83.59C21.7349 93.1814 24.9101 105.557 34.5015 111.232L83.6777 140.326C93.2691 146.001 105.645 142.825 111.319 133.234L140.414 84.0577C146.088 74.4662 142.913 62.0907 133.322 56.4161Z" fill="#4446F8"/>
<path d="M91.4781 111.724C89.6406 111.793 88.1497 111.481 87.0055 110.822C84.8559 109.539 83.2957 108.257 82.3249 106.939C81.3541 105.656 80.7648 103.923 80.5567 101.808C78.3031 102.258 75.7028 102.016 72.7557 101.149C69.8086 100.282 67.243 99.2074 65.0934 97.9245C61.5569 95.8443 59.2339 93.1746 58.055 89.9155C56.9109 86.6564 57.431 83.1893 59.6153 79.4795C60.5514 77.8846 61.8689 76.6711 63.4984 75.839C65.128 75.0069 67.0002 74.5215 69.1152 74.3828C71.4035 74.2788 73.7958 74.5561 76.2574 75.2149C78.7191 75.8736 81.0768 76.8444 83.3651 78.1966C84.5439 78.89 85.8614 79.9648 87.2482 81.421C88.6351 82.8426 89.6406 84.0907 90.23 85.1655L91.0274 83.8134C92.8303 80.7276 93.3504 78.1619 92.5876 76.151C91.7902 74.1054 89.7445 72.0945 86.4508 70.1529C85.48 69.5635 84.4052 69.2167 83.2264 69.0434C82.0476 68.87 80.6608 68.8007 79.0659 68.766C76.9509 68.662 75.2173 68.2113 73.7958 67.3792C73.2757 67.0671 72.9984 66.4431 72.9637 65.4376C72.9291 64.4668 73.0678 63.6694 73.4145 63.1146C74.3853 61.4504 76.0148 60.5143 78.3031 60.2369C80.5914 59.9595 82.9837 60.1676 85.48 60.861C88.011 61.5544 90.126 62.3865 91.8249 63.392C93.5238 64.3975 95.292 65.8883 97.1296 67.8646C98.9671 69.8408 100.25 71.8171 101.013 73.7934C101.845 76.2897 102.157 78.786 101.914 81.317C101.672 83.848 100.874 86.275 99.5219 88.598C99.0712 89.3261 98.3778 90.4009 97.3723 91.8224C96.2975 93.3479 95.4654 94.7001 94.7719 95.8096C94.4599 96.3296 93.9398 97.0577 93.2464 98.0285C92.3796 99.2074 91.7556 100.178 91.3048 100.906C90.8888 101.6 90.8194 102.328 91.0274 103.125C91.2701 103.923 91.7209 104.512 92.3796 104.928L94.8065 106.246C95.4306 106.627 95.7774 107.147 95.8468 107.771C95.9161 108.43 95.7427 109.089 95.3613 109.782C94.6332 111.03 93.3157 111.689 91.4781 111.758V111.724ZM75.7721 94.1107C77.7137 94.5614 80.2793 94.8041 83.4344 94.8388C84.2318 94.0067 85.1333 92.7932 86.1387 91.233C83.8851 87.9046 81.7355 85.6163 79.6899 84.4028C77.367 83.0159 75.0093 82.2185 72.6863 82.0104C70.3633 81.8024 68.5604 82.7732 67.2776 84.9228C66.6535 85.9976 66.5496 87.1765 67.035 88.4593C67.5204 89.7421 68.2138 90.6783 69.1846 91.233C71.6462 92.6892 73.8305 93.6253 75.8068 94.1107H75.7721Z" fill="white"/>
<defs>
<filter id="filter0_d_29_2847" x="11.1032" y="10.1671" width="151.229" height="151.229" filterUnits="userSpaceOnUse" color-interpolation-filters="sRGB">
<feFlood flood-opacity="0" result="BackgroundImageFix"/>
<feColorMatrix in="SourceAlpha" type="matrix" values="0 0 0 0 0 0 0 0 0 0 0 0 0 0 0 0 0 0 127 0" result="hardAlpha"/>
<feOffset dx="2.84304" dy="1.90692"/>
<feGaussianBlur stdDeviation="1.90692"/>
<feColorMatrix type="matrix" values="0 0 0 0 0.168627 0 0 0 0 0.172549 0 0 0 0 0.811765 0 0 0 1 0"/>
<feBlend mode="normal" in2="BackgroundImageFix" result="effect1_dropShadow_29_2847"/>
<feBlend mode="normal" in="SourceGraphic" in2="effect1_dropShadow_29_2847" result="shape"/>
</filter>
</defs>
</svg>
