<svg width="1029" height="700" viewBox="0 0 1029 700" fill="none" xmlns="http://www.w3.org/2000/svg">
<g filter="url(#filter0_d_29_2787)">
<path d="M-39.8189 85.3606L-27.2943 119.609C-24.404 127.503 -16.6344 132.755 -8.27433 131.916C15.8736 129.523 39.4932 143.602 48.2263 167.439C56.9593 191.276 47.9777 217.257 27.9942 231.025C21.0637 235.78 18.5153 244.824 21.4056 252.718L36.3854 293.71C39.2757 301.604 47.0453 306.857 55.4054 306.018C79.5534 303.624 103.173 317.703 111.906 341.54C120.639 365.377 111.657 391.359 91.674 405.127C84.7435 409.882 82.195 418.926 85.0853 426.819L103.08 475.986C105.97 483.879 113.74 489.132 122.1 488.293C146.248 485.9 169.867 499.978 178.6 523.815C187.333 547.652 178.352 573.634 158.368 587.402C151.438 592.157 148.889 601.201 151.78 609.095L168.282 654.158C171.173 662.052 178.942 667.305 187.302 666.465C211.45 664.072 235.07 678.151 243.803 701.988C252.536 725.825 243.554 751.807 223.571 765.575C216.64 770.33 214.092 779.373 216.982 787.267L233.485 832.331C236.375 840.225 244.145 845.477 252.505 844.638C276.653 842.245 300.272 856.324 309.006 880.161C317.739 903.998 308.757 929.98 288.773 943.747C281.843 948.502 279.295 957.546 282.185 965.44L294.709 999.688C298.283 1009.48 309.13 1014.51 318.92 1010.94L999.6 761.969C1009.39 758.395 1014.42 747.549 1010.85 737.759L676.291 -176.6C672.717 -186.389 661.87 -191.424 652.081 -187.85L-28.5996 61.1505C-38.3893 64.7245 -43.424 75.5709 -39.85 85.3606H-39.8189Z" fill="white"/>
</g>
<g opacity="0.1">
<path d="M95.3062 120.4C93.7523 120.4 92.2916 119.437 91.7322 117.914C91.0174 115.925 92.0119 113.75 94.0009 113.035L696.861 -107.498C698.85 -108.213 701.025 -107.218 701.74 -105.229C702.455 -103.24 701.46 -101.065 699.471 -100.35L96.6115 120.152C96.1764 120.307 95.7413 120.4 95.3062 120.4Z" fill="#4144FD"/>
<path d="M161.97 302.645C160.416 302.645 158.955 301.681 158.395 300.158C157.681 298.169 158.675 295.994 160.664 295.279L763.555 74.7464C765.513 74.0316 767.719 75.0572 768.434 77.0151C769.149 79.0041 768.155 81.1796 766.166 81.8944L163.275 302.427C162.84 302.582 162.405 302.676 161.97 302.676V302.645Z" fill="#4144FD"/>
<path d="M228.633 484.889C227.079 484.889 225.618 483.926 225.059 482.403C224.344 480.414 225.338 478.238 227.327 477.523L830.218 256.991C832.207 256.276 834.383 257.27 835.097 259.259C835.812 261.248 834.818 263.424 832.829 264.139L229.938 484.671C229.503 484.827 229.068 484.92 228.633 484.92V484.889Z" fill="#4144FD"/>
<path d="M295.296 667.164C293.743 667.164 292.282 666.2 291.722 664.677C291.008 662.688 292.002 660.513 293.991 659.798L896.882 439.265C898.871 438.551 901.046 439.545 901.761 441.534C902.476 443.523 901.481 445.699 899.492 446.413L296.602 666.946C296.167 667.101 295.732 667.195 295.296 667.195V667.164Z" fill="#4144FD"/>
<path d="M361.96 849.408C360.406 849.408 358.945 848.445 358.385 846.922C357.671 844.933 358.665 842.757 360.654 842.042L963.545 621.51C965.503 620.795 967.709 621.789 968.424 623.778C969.139 625.767 968.145 627.943 966.156 628.658L363.265 849.19C362.83 849.346 362.395 849.439 361.96 849.439V849.408Z" fill="#4144FD"/>
<path d="M328.643 758.286C327.089 758.286 325.629 757.322 325.069 755.8C324.355 753.811 325.349 751.635 327.338 750.92L930.229 530.388C932.187 529.673 934.393 530.667 935.108 532.656C935.823 534.645 934.828 536.821 932.839 537.536L329.949 758.068C329.514 758.224 329.078 758.317 328.643 758.317V758.286Z" fill="#4144FD"/>
<path d="M195.285 393.767C193.731 393.767 192.271 392.803 191.711 391.28C190.996 389.291 191.991 387.116 193.98 386.401L796.871 165.868C798.829 165.154 801.035 166.148 801.75 168.137C802.465 170.126 801.47 172.302 799.481 173.016L196.59 393.549C196.155 393.705 195.72 393.798 195.285 393.798V393.767Z" fill="#4144FD"/>
<path d="M128.622 211.523C127.068 211.523 125.608 210.56 125.048 209.037C124.334 207.048 125.328 204.872 127.317 204.157L730.208 -16.3753C732.166 -17.0901 734.372 -16.0956 735.087 -14.1065C735.802 -12.1175 734.807 -9.94203 732.818 -9.22722L129.959 211.274C129.524 211.43 129.089 211.523 128.653 211.523H128.622Z" fill="#4144FD"/>
<path d="M261.98 576.042C260.426 576.042 258.966 575.078 258.406 573.556C257.691 571.566 258.686 569.391 260.675 568.676L863.566 348.144C865.555 347.429 867.73 348.423 868.445 350.412C869.16 352.401 868.165 354.577 866.176 355.292L263.286 575.824C262.85 575.98 262.415 576.073 261.98 576.073V576.042Z" fill="#4144FD"/>
<path d="M403.014 961.632C401.46 961.632 400 960.668 399.44 959.146L51.3616 7.52359C50.6468 5.53457 51.6413 3.35908 53.6303 2.64428C55.6193 1.92947 57.7948 2.92399 58.5096 4.91301L406.588 956.535C407.303 958.524 406.309 960.7 404.319 961.414C403.884 961.57 403.449 961.663 403.014 961.663V961.632Z" fill="#E334B7"/>
</g>
<defs>
<filter id="filter0_d_29_2787" x="-43.362" y="-193.724" width="1071.9" height="1219.98" filterUnits="userSpaceOnUse" color-interpolation-filters="sRGB">
<feFlood flood-opacity="0" result="BackgroundImageFix"/>
<feColorMatrix in="SourceAlpha" type="matrix" values="0 0 0 0 0 0 0 0 0 0 0 0 0 0 0 0 0 0 127 0" result="hardAlpha"/>
<feOffset dx="7.08589" dy="4.72392"/>
<feGaussianBlur stdDeviation="4.72392"/>
<feColorMatrix type="matrix" values="0 0 0 0 0.496409 0 0 0 0 0.338412 0 0 0 0 0.849824 0 0 0 1 0"/>
<feBlend mode="normal" in2="BackgroundImageFix" result="effect1_dropShadow_29_2787"/>
<feBlend mode="normal" in="SourceGraphic" in2="effect1_dropShadow_29_2787" result="shape"/>
</filter>
</defs>
</svg>
