<svg viewBox="0 0 500 500" xmlns="http://www.w3.org/2000/svg" preserveAspectRatio="xMidYMid slice">
    <!-- Background shapes -->
    <circle cx="250" cy="250" r="230" fill="#6840c6" opacity="0.4"/>
    <circle cx="250" cy="250" r="180" fill="#7e56d8" opacity="0.3"/>
    
    <!-- Decorative elements -->
    <circle cx="100" cy="100" r="30" fill="white" opacity="0.2">
        <animate attributeName="cy" values="100;110;100" dur="5s" repeatCount="indefinite" />
    </circle>
    <circle cx="400" cy="400" r="20" fill="white" opacity="0.15">
        <animate attributeName="cy" values="400;410;400" dur="5s" repeatCount="indefinite" begin="1s" />
    </circle>
    <circle cx="150" cy="400" r="15" fill="white" opacity="0.1">
        <animate attributeName="cy" values="400;390;400" dur="5s" repeatCount="indefinite" begin="2s" />
    </circle>
    
    <!-- Main illustration elements -->
    <g transform="translate(125, 120)">
        <!-- School/Education Building -->
        <rect x="40" y="100" width="170" height="140" fill="#f3f4f6" rx="5"/>
        <rect x="55" y="120" width="30" height="40" fill="#d6bbfb" rx="2"/>
        <rect x="95" y="120" width="30" height="40" fill="#d6bbfb" rx="2"/>
        <rect x="135" y="120" width="30" height="40" fill="#d6bbfb" rx="2"/>
        <rect x="55" y="170" width="30" height="40" fill="#d6bbfb" rx="2"/>
        <rect x="95" y="170" width="30" height="40" fill="#d6bbfb" rx="2"/>
        <rect x="135" y="170" width="60" height="40" fill="#d1c4e9" rx="2"/>
        <path d="M40 100 L125 40 L210 100" fill="#d1c4e9"/>
        <rect x="180" y="60" width="15" height="15" fill="white" rx="2"/>
        
        <!-- Map Pin -->
        <g transform="translate(0, -20)">
            <path d="M250 150 C250 120 230 100 200 100 C170 100 150 120 150 150 C150 180 200 220 200 220 C200 220 250 180 250 150Z" fill="#ef4444"/>
            <circle cx="200" cy="150" r="15" fill="white"/>
        </g>
        
        <!-- Data Visualization Elements -->
        <g transform="translate(-40, 210)">
            <rect x="10" y="30" width="20" height="60" fill="#d1c4e9" opacity="0.8" rx="3">
                <animate attributeName="height" values="60;70;60" dur="3s" repeatCount="indefinite" />
            </rect>
            <rect x="35" y="50" width="20" height="40" fill="#d1c4e9" opacity="0.6" rx="3">
                <animate attributeName="height" values="40;50;40" dur="3s" repeatCount="indefinite" begin="0.5s" />
            </rect>
            <rect x="60" y="40" width="20" height="50" fill="#d1c4e9" opacity="0.7" rx="3">
                <animate attributeName="height" values="50;60;50" dur="3s" repeatCount="indefinite" begin="1s" />
            </rect>
        </g>
    </g>
</svg>