<svg width="496" height="438" viewBox="0 0 496 438" fill="none" xmlns="http://www.w3.org/2000/svg">
<g filter="url(#filter0_d_29_2800)">
<path d="M591.58 420.035C591.125 420.035 590.67 419.997 590.177 419.883L7.71217 284.118C6.11939 283.739 4.75415 282.753 3.91984 281.387C3.08552 280.022 2.78221 278.354 3.16144 276.761L116.249 -208.279C116.78 -210.592 118.6 -212.375 120.951 -212.868C123.265 -213.361 125.654 -212.45 127.095 -210.592L596.472 410.251C598.027 412.299 598.141 415.105 596.737 417.267C595.6 419.011 593.666 420.035 591.618 420.035H591.58ZM173.134 178.084L252.128 196.515L188.455 112.287L173.134 178.084Z" fill="white"/>
</g>
<path d="M535.529 386.322C534.884 386.322 534.202 386.246 533.519 386.094L34.4478 269.745C32.1724 269.214 30.2004 267.811 28.9489 265.801C27.6974 263.829 27.3183 261.402 27.8492 259.127L124.743 -156.475C125.54 -159.812 128.156 -162.391 131.494 -163.112C134.831 -163.832 138.282 -162.543 140.368 -159.812L542.545 372.138C544.782 375.096 544.934 379.154 542.886 382.264C541.217 384.805 538.449 386.284 535.491 386.284L535.529 386.322ZM135.286 199.701L332.715 245.74L173.626 35.3032L135.286 199.701Z" fill="#FDCF00"/>
<path d="M231.384 42.0146C228.729 42.0146 226.113 40.839 224.368 38.5636C221.41 34.6954 222.131 29.1586 225.999 26.2006L251.901 6.29082C255.769 3.29487 261.306 4.05337 264.264 7.92155C267.222 11.7897 266.501 17.3265 262.633 20.2845L236.731 40.1943C235.138 41.4458 233.242 42.0146 231.346 42.0146H231.384Z" fill="#FFA200"/>
<path d="M273.062 97.3452C270.407 97.3452 267.79 96.1695 266.046 93.8941C263.088 90.026 263.808 84.4892 267.677 81.5312L293.578 61.6214C297.446 58.6255 302.983 59.3839 305.941 63.2521C308.899 67.1203 308.179 72.6571 304.311 75.6151L278.409 95.5249C276.816 96.7763 274.92 97.3452 273.024 97.3452H273.062Z" fill="#FFA200"/>
<path d="M314.739 152.675C312.085 152.675 309.468 151.5 307.723 149.224C304.765 145.356 305.486 139.819 309.354 136.861L335.256 116.951C339.124 113.993 344.661 114.714 347.619 118.582C350.577 122.45 349.856 127.987 345.988 130.945L320.086 150.855C318.494 152.106 316.597 152.675 314.701 152.675H314.739Z" fill="#FFA200"/>
<path d="M356.417 208.005C353.763 208.005 351.146 206.83 349.401 204.554C346.443 200.686 347.164 195.149 351.032 192.191L376.934 172.281C380.802 169.323 386.339 170.044 389.297 173.912C392.255 177.78 391.534 183.317 387.666 186.275L361.764 206.185C360.172 207.436 358.275 208.005 356.379 208.005H356.417Z" fill="#FFA200"/>
<path d="M398.095 263.298C395.44 263.298 392.823 262.122 391.079 259.847C388.121 255.979 388.841 250.442 392.71 247.484L418.611 227.574C422.479 224.616 428.016 225.337 430.974 229.205C433.932 233.073 433.212 238.61 429.343 241.568L403.442 261.477C401.849 262.729 399.953 263.298 398.057 263.298H398.095Z" fill="#FFA200"/>
<path d="M439.772 318.628C437.118 318.628 434.501 317.452 432.757 315.177C429.799 311.309 430.519 305.772 434.387 302.814L460.289 282.904C464.157 279.946 469.694 280.667 472.652 284.535C475.61 288.403 474.889 293.94 471.021 296.898L445.12 316.808C443.527 318.059 441.631 318.628 439.734 318.628H439.772Z" fill="#FFA200"/>
<defs>
<filter id="filter0_d_29_2800" x="0.117826" y="-218.764" width="617.776" height="656.093" filterUnits="userSpaceOnUse" color-interpolation-filters="sRGB">
<feFlood flood-opacity="0" result="BackgroundImageFix"/>
<feColorMatrix in="SourceAlpha" type="matrix" values="0 0 0 0 0 0 0 0 0 0 0 0 0 0 0 0 0 0 127 0" result="hardAlpha"/>
<feOffset dx="8.64652" dy="5.76435"/>
<feGaussianBlur stdDeviation="5.76435"/>
<feColorMatrix type="matrix" values="0 0 0 0 0.266667 0 0 0 0 0.27451 0 0 0 0 0.972549 0 0 0 1 0"/>
<feBlend mode="normal" in2="BackgroundImageFix" result="effect1_dropShadow_29_2800"/>
<feBlend mode="normal" in="SourceGraphic" in2="effect1_dropShadow_29_2800" result="shape"/>
</filter>
</defs>
</svg>
