<svg width="257" height="244" viewBox="0 0 257 244" fill="none" xmlns="http://www.w3.org/2000/svg">
<g filter="url(#filter0_d_29_2834)">
<path d="M227.44 10.3485C234.305 15.1678 238.119 23.0381 237.599 31.3939L232.988 106.492L72.4598 336.085C62.5092 350.265 42.8853 353.732 28.7047 343.816L-17.5813 311.399C-24.4462 306.579 -29.0575 299.368 -30.5137 291.116C-31.9699 282.864 -30.1323 274.509 -25.313 267.644L135.249 38.1895L204.176 8.02552C211.873 4.66241 220.541 5.52916 227.406 10.3138L227.44 10.3485Z" fill="white"/>
</g>
<path d="M149.094 54.9287L-3.67529 273.105L59.8294 317.572L212.598 99.3952L149.094 54.9287Z" fill="#FFCF33"/>
<path d="M33.2815 298.987L43.5441 306.198L196.236 87.9775L185.974 80.7659L33.2815 298.987Z" fill="#FFA200"/>
<path d="M12.4092 284.702L22.8105 291.983L175.503 73.7622L165.101 66.4813L12.4092 284.702Z" fill="#FFA200"/>
<path d="M212.566 27.0947L194.641 34.9304L215.618 49.631L216.831 30.1111C216.97 27.8228 214.647 26.1933 212.532 27.0947H212.566Z" fill="#FFCF33"/>
<path d="M148.979 54.9359C144.541 61.2807 146.102 70.0525 152.446 74.4904C157.023 77.7149 162.882 77.7495 167.424 75.1492C166.557 80.3152 168.603 85.7933 173.18 89.0177C177.444 91.9994 182.749 92.2421 187.152 90.1618C186.736 94.9812 188.782 99.9045 193.046 102.886C199.391 107.324 208.163 105.764 212.601 99.4191L215.652 49.6658L194.676 34.9652C194.676 34.9652 149.014 54.9359 148.979 54.9359Z" fill="#FF75D4"/>
<defs>
<filter id="filter0_d_29_2834" x="-33.635" y="0.729973" width="289.726" height="364.551" filterUnits="userSpaceOnUse" color-interpolation-filters="sRGB">
<feFlood flood-opacity="0" result="BackgroundImageFix"/>
<feColorMatrix in="SourceAlpha" type="matrix" values="0 0 0 0 0 0 0 0 0 0 0 0 0 0 0 0 0 0 127 0" result="hardAlpha"/>
<feOffset dx="7.90504" dy="5.27003"/>
<feGaussianBlur stdDeviation="5.27003"/>
<feColorMatrix type="matrix" values="0 0 0 0 0 0 0 0 0 0.32549 0 0 0 0 0.678431 0 0 0 0.3 0"/>
<feBlend mode="normal" in2="BackgroundImageFix" result="effect1_dropShadow_29_2834"/>
<feBlend mode="normal" in="SourceGraphic" in2="effect1_dropShadow_29_2834" result="shape"/>
</filter>
</defs>
</svg>
