<svg width="444" height="339" viewBox="0 0 444 339" fill="none" xmlns="http://www.w3.org/2000/svg">
<g filter="url(#filter0_d_29_2812)">
<path d="M424.475 167.793C426.439 159.471 423.977 150.944 417.893 144.959L363.531 91.115L86.3072 25.6545C69.1418 21.6451 51.9251 32.2752 47.8944 49.4077L34.7295 105.329C32.7658 113.652 34.1746 122.209 38.6588 129.468C43.1431 136.726 50.2142 141.79 58.5156 143.721L335.687 209.029L408.416 185.23C416.532 182.569 422.556 176.04 424.487 167.739L424.475 167.793Z" fill="white"/>
</g>
<path d="M89.2667 48.2695L71.2126 125.015L334.813 187.026L352.867 110.28L89.2667 48.2695Z" fill="#4446F8"/>
<path d="M299.179 157.022L75.9701 104.378L78.4375 93.815L342.005 155.926L339.538 166.489L299.179 157.022Z" fill="#2B2CCF"/>
<path d="M305.3 131.764L82.0588 79.1415L84.4671 68.99L348.034 131.101L345.648 141.285L305.3 131.764Z" fill="#2B2CCF"/>
<path d="M401.813 165.164L382.901 171.39L388.872 146.043L403.045 160.023C404.709 161.649 404.025 164.473 401.835 165.196L401.813 165.164Z" fill="#2B2CCF"/>
<path d="M71.2794 125.019L63.411 123.18C57.6209 121.81 53.9879 116.005 55.3905 110.194L62.0361 81.9352L68.5554 54.2722C69.9252 48.4821 75.7303 44.8491 81.5417 46.2517L89.4101 48.0907L71.3335 125.031L71.2794 125.019Z" fill="#2B2CCF"/>
<path d="M334.738 187.107C327.065 185.281 322.303 177.596 324.129 169.923C325.42 164.37 329.83 160.385 335.041 159.284C330.858 155.936 328.719 150.42 330.011 144.868C331.243 139.727 335.096 135.963 339.844 134.51C336.237 131.114 334.463 126.015 335.695 120.874C337.521 113.201 345.206 108.439 352.879 110.265L388.895 145.934L382.945 171.314C382.945 171.314 334.792 187.118 334.771 187.085L334.738 187.107Z" fill="#FFCF33"/>
<defs>
<filter id="filter0_d_29_2812" x="31.1648" y="19.4485" width="412.715" height="205.661" filterUnits="userSpaceOnUse" color-interpolation-filters="sRGB">
<feFlood flood-opacity="0" result="BackgroundImageFix"/>
<feColorMatrix in="SourceAlpha" type="matrix" values="0 0 0 0 0 0 0 0 0 0 0 0 0 0 0 0 0 0 127 0" result="hardAlpha"/>
<feOffset dx="8.02097" dy="5.36035"/>
<feGaussianBlur stdDeviation="5.36035"/>
<feColorMatrix type="matrix" values="0 0 0 0 0 0 0 0 0 0.32549 0 0 0 0 0.678431 0 0 0 0.3 0"/>
<feBlend mode="normal" in2="BackgroundImageFix" result="effect1_dropShadow_29_2812"/>
<feBlend mode="normal" in="SourceGraphic" in2="effect1_dropShadow_29_2812" result="shape"/>
</filter>
</defs>
</svg>
