<svg width="880" height="695" viewBox="0 0 880 695" fill="none" xmlns="http://www.w3.org/2000/svg">
<g filter="url(#filter0_d_29_2856)">
<mask id="mask0_29_2856" style="mask-type:luminance" maskUnits="userSpaceOnUse" x="128" y="68" width="611" height="467">
<path d="M128.016 256.296L309.159 534.422L454.633 438.142L598.686 397.507L738.631 306.927L571.59 68.0315L418.979 159.314L264.931 175.712L128.016 256.296Z" fill="white"/>
</mask>
<g mask="url(#mask0_29_2856)">
<path d="M128.016 256.296L309.159 534.422L454.633 438.142L598.686 397.506L738.631 306.927L571.59 68.0311L418.979 159.313L264.931 175.711L128.016 256.296Z" fill="#82DBAA"/>
<path d="M315 402.941C312.532 402.941 310.018 402.847 307.425 402.66C267.399 399.802 240.678 383.732 228.012 354.887C217.736 331.492 218.517 303.772 219.282 276.989C219.47 270.133 219.673 263.058 219.673 256.296C219.673 251.252 219.673 235.931 188.782 223.094C169.323 215.004 148.974 212.943 148.771 212.927L152.987 168.449C154.049 168.543 179.334 171.011 204.868 181.412C220.984 187.971 234.087 196.388 243.817 206.446C257.247 220.314 264.338 237.555 264.338 256.296C264.338 263.698 264.135 271.101 263.932 278.254C262.307 335.959 265.556 354.887 310.58 358.104C335.989 359.916 350.06 345.548 370.925 321.95C383.215 308.036 395.943 293.652 413.138 284.266C434.252 272.741 457.147 271.351 483.103 280.05C533.031 296.776 575.463 297.353 596.608 281.596C609.321 272.132 615.13 256.171 614.349 232.792C613.522 207.602 619.768 185.425 632.918 166.856C643.272 152.239 657.687 140.214 675.787 131.109C704.976 116.429 734.414 114.289 735.663 114.211L738.677 158.782H738.755C738.537 158.782 716.017 160.578 694.856 171.526C669.821 184.473 658.093 204.041 658.999 231.308C660.592 279.316 640.461 304.631 623.298 317.421C589.44 342.643 534.608 344.423 468.907 322.419C440.265 312.83 427.771 325.105 404.392 351.545C384.028 374.58 358.946 402.941 314.968 402.941H315Z" fill="#80D6C5"/>
<path opacity="0.5" d="M276.347 146.476C276.347 146.476 298.82 193.312 287.764 232.058C276.347 271.991 326.275 278.41 326.275 278.41C326.275 278.41 360.508 303.366 406.142 247.738C451.79 192.109 479.37 232.042 533.078 232.042C592.985 232.042 628.311 149.162 612.631 84.9757C596.936 20.8048 524.52 13.824 524.52 13.824L276.347 146.476Z" fill="#6DBF70"/>
<path d="M331.523 135.029C331.523 135.029 344.985 163.077 338.347 186.269C331.523 210.179 361.398 214.02 361.398 214.02C361.398 214.02 381.888 228.966 409.218 195.655C436.548 162.343 453.071 186.253 485.227 186.253C521.099 186.253 542.245 136.622 532.859 98.1879C523.457 59.7541 480.104 55.5844 480.104 55.5844L331.507 135.013L331.523 135.029Z" fill="#6DBF70"/>
<path d="M371.908 100.109C371.908 100.109 361.929 167.856 400.441 164.998C438.953 162.14 493.144 167.856 497.423 109.37C501.702 50.8835 426.115 55.5843 426.115 55.5843L371.908 100.093V100.109Z" fill="#47A861"/>
<path opacity="0.5" d="M457.569 523.021C457.569 523.021 196.138 573.917 189.344 542.714C150.91 366.116 354.792 498.768 371.955 448.871C384.309 412.92 414.7 329.025 486.023 363.258C557.331 397.49 565.889 440.016 545.93 469.376C525.956 498.752 457.569 522.99 457.569 522.99V523.021Z" fill="#6DBF70"/>
<path d="M364.771 550.117C364.771 550.117 405.36 472.328 407.765 449.714C410.171 427.101 434.065 373.331 476.731 393.82C519.397 414.295 524.519 439.75 512.572 457.32C501.343 473.843 380.264 541.527 364.756 550.117H364.771Z" fill="#6DBF70"/>
<path d="M209.319 638.541C209.319 638.541 249.908 560.752 252.313 538.139C254.718 515.525 278.612 461.755 321.278 482.245C363.944 502.719 369.066 528.175 357.119 545.744C345.891 562.267 224.811 629.952 209.303 638.541H209.319Z" fill="#6DBF70"/>
<path d="M42.4336 381.655C42.4336 381.655 83.0226 303.866 85.4276 281.252C87.8326 258.638 111.727 204.869 154.393 225.358C197.059 245.832 202.181 271.288 190.234 288.858C179.006 305.381 57.9258 373.065 42.418 381.655H42.4336Z" fill="#6DBF70"/>
<path d="M455.882 481.277C455.882 481.277 420.915 469.408 422.461 453.681C424.008 437.955 439.375 400.567 466.83 414.81C494.285 429.053 497.58 446.747 489.881 458.96C482.181 471.172 455.867 481.277 455.867 481.277H455.882Z" fill="#47A861"/>
<path d="M125.939 301.695C125.939 301.695 90.9717 289.826 92.5178 274.1C94.0639 258.373 109.431 220.986 136.886 235.228C164.341 249.471 167.636 267.165 159.937 279.378C152.253 291.606 125.923 301.695 125.923 301.695H125.939Z" fill="#47A861"/>
<path d="M291.855 577.541C291.855 577.541 256.888 565.672 258.434 549.945C259.98 534.219 275.347 496.831 302.802 511.074C330.257 525.317 333.553 543.011 325.853 555.224C318.17 567.452 291.839 577.541 291.839 577.541H291.855Z" fill="#47A861"/>
<path opacity="0.5" d="M764.649 409.563C764.649 409.563 568.763 430.88 601.543 411.64C678.567 366.459 666.995 236.556 745.205 248.472C823.416 260.388 844.015 298.556 833.489 332.476C822.963 366.397 764.649 409.563 764.649 409.563Z" fill="#6DBF70"/>
<path d="M756.902 376.782C756.902 376.782 677.177 402.925 672.867 380.593C668.556 358.26 698.479 273.272 745.268 280.393C792.057 287.515 804.379 310.363 798.085 330.649C791.791 350.952 756.887 376.767 756.887 376.767L756.902 376.782Z" fill="#6DBF70"/>
<path d="M751.734 354.949C751.734 354.949 720.234 354.7 717.86 342.346C715.486 329.993 719.437 297.713 745.299 301.648C771.177 305.584 777.986 318.218 774.503 329.447C771.021 340.675 751.734 354.949 751.734 354.949Z" fill="#47A861"/>
<path d="M128.016 284.828L276.348 192.109L433.315 178.32L620.081 60.8942" stroke="white" stroke-width="0.718389" stroke-miterlimit="10"/>
<path d="M144.804 304.475L293.151 211.756L450.119 197.966L636.885 80.5405" stroke="white" stroke-width="0.718389" stroke-miterlimit="10"/>
<path d="M158.016 324.043L306.348 231.34L463.316 217.534L650.097 100.109" stroke="white" stroke-width="0.718389" stroke-miterlimit="10"/>
<path d="M172.274 343.065L320.606 250.362L477.59 236.556L664.355 119.131" stroke="white" stroke-width="0.718389" stroke-miterlimit="10"/>
<path d="M189.079 362.711L337.41 270.008L494.378 256.202L681.144 138.792" stroke="white" stroke-width="0.718389" stroke-miterlimit="10"/>
<path d="M202.275 382.295L350.623 289.576L507.591 275.786L694.356 158.361" stroke="white" stroke-width="0.718389" stroke-miterlimit="10"/>
<path d="M216.549 405.174L364.881 312.455L521.849 298.665L708.614 181.24" stroke="white" stroke-width="0.718389" stroke-miterlimit="10"/>
<path d="M233.338 424.821L381.669 332.117L538.653 318.312L725.418 200.886" stroke="white" stroke-width="0.718389" stroke-miterlimit="10"/>
<path d="M246.55 444.389L394.881 351.686L551.849 337.88L738.63 220.47" stroke="white" stroke-width="0.718389" stroke-miterlimit="10"/>
<path d="M264.931 464.379L413.278 371.675L570.246 357.87L757.012 240.444" stroke="white" stroke-width="0.718389" stroke-miterlimit="10"/>
<path d="M273.802 491.678L430.067 391.322L587.035 377.516L773.816 260.106" stroke="white" stroke-width="0.718389" stroke-miterlimit="10"/>
<path d="M278.471 511.98L443.279 410.89L600.247 397.1L787.012 279.675" stroke="white" stroke-width="0.718389" stroke-miterlimit="10"/>
<path d="M140.853 232.042L341.955 542.714" stroke="white" stroke-width="0.718389" stroke-miterlimit="10"/>
<path d="M164.388 214.067L365.49 524.739" stroke="white" stroke-width="0.718389" stroke-miterlimit="10"/>
<path d="M183.457 194.983L394.725 515.884" stroke="white" stroke-width="0.718389" stroke-miterlimit="10"/>
<path d="M202.541 175.915L411.842 491.631" stroke="white" stroke-width="0.718389" stroke-miterlimit="10"/>
<path d="M221.625 156.83L446.074 484.509" stroke="white" stroke-width="0.718389" stroke-miterlimit="10"/>
<path d="M240.693 137.746L467.47 456.695" stroke="white" stroke-width="0.718389" stroke-miterlimit="10"/>
<path d="M264.931 139.261L491.708 458.194" stroke="white" stroke-width="0.718389" stroke-miterlimit="10"/>
<path d="M289.169 140.76L515.946 459.709" stroke="white" stroke-width="0.718389" stroke-miterlimit="10"/>
<path d="M313.407 142.275L540.183 461.208" stroke="white" stroke-width="0.718389" stroke-miterlimit="10"/>
<path d="M337.645 143.774L564.421 462.708" stroke="white" stroke-width="0.718389" stroke-miterlimit="10"/>
<path d="M361.898 145.289L588.659 464.223" stroke="white" stroke-width="0.718389" stroke-miterlimit="10"/>
<path d="M386.136 146.789L612.897 465.722" stroke="white" stroke-width="0.718389" stroke-miterlimit="10"/>
<path d="M410.374 148.288L637.135 467.237" stroke="white" stroke-width="0.718389" stroke-miterlimit="10"/>
<path d="M424.726 118.927L651.502 437.877" stroke="white" stroke-width="0.718389" stroke-miterlimit="10"/>
<path d="M447.964 102.248L674.741 421.197" stroke="white" stroke-width="0.718389" stroke-miterlimit="10"/>
<path d="M473.686 98.3596L700.462 417.293" stroke="white" stroke-width="0.718389" stroke-miterlimit="10"/>
<path d="M496.924 81.6805L723.7 400.614" stroke="white" stroke-width="0.718389" stroke-miterlimit="10"/>
<path d="M516.883 69.015L743.659 387.948" stroke="white" stroke-width="0.718389" stroke-miterlimit="10"/>
<path d="M540.136 52.3361L766.898 371.27" stroke="white" stroke-width="0.718389" stroke-miterlimit="10"/>
</g>
<path d="M569.591 77.3703L728.729 304.99L595.78 391.041L452.743 431.411L451.697 431.708L450.791 432.317L311.189 524.708L137.87 258.607L267.18 182.505L419.713 166.263L421.243 166.107L422.571 165.31L569.591 77.3703ZM571.59 68.0156L418.979 159.298L264.931 175.696L128 256.28L309.143 534.406L454.633 438.126L598.685 397.475L738.615 306.911L571.59 68V68.0156Z" fill="white"/>
<path opacity="0.2" d="M454.633 438.142L598.685 397.506L418.979 159.313L264.931 175.711L454.633 438.142Z" fill="black"/>
</g>
<path opacity="0.2" d="M553.583 194.593C553.583 198.965 546.961 202.51 538.793 202.51C530.626 202.51 524.004 198.965 524.004 194.593C524.004 190.22 530.626 186.675 538.793 186.675C546.961 186.675 553.583 190.22 553.583 194.593Z" fill="black"/>
<path opacity="0.2" d="M476.012 365.163C476.012 369.536 469.391 373.081 461.223 373.081C453.055 373.081 446.433 369.536 446.433 365.163C446.433 360.79 453.055 357.245 461.223 357.245C469.391 357.245 476.012 360.79 476.012 365.163Z" fill="black"/>
<path opacity="0.2" d="M226.747 311.987C226.747 316.36 220.125 319.905 211.958 319.905C203.79 319.905 197.168 316.36 197.168 311.987C197.168 307.614 203.79 304.069 211.958 304.069C220.125 304.069 226.747 307.614 226.747 311.987Z" fill="black"/>
<path d="M566.389 149.584C566.389 135.997 555.379 125.003 541.807 125.003C528.236 125.003 517.226 136.013 517.226 149.584C517.226 153.488 518.147 157.174 519.756 160.454L519.771 160.485C520.802 162.546 522.098 164.452 523.645 166.138L537.466 191.422H540.917L561.688 164.202L561.61 164.17C564.624 160.094 566.404 155.05 566.404 149.584H566.389Z" fill="#7F343F"/>
<path d="M562.937 149.584C562.937 135.997 551.927 125.003 538.356 125.003C524.785 125.003 513.775 136.013 513.775 149.584C513.775 153.488 514.696 157.174 516.305 160.454L516.32 160.485C517.351 162.546 518.647 164.452 520.193 166.138L537.466 191.422L558.237 164.202L558.159 164.17C561.173 160.094 562.953 155.05 562.953 149.584H562.937Z" fill="#BC5860"/>
<path d="M538.356 160.75C544.575 160.75 549.616 155.709 549.616 149.49C549.616 143.272 544.575 138.23 538.356 138.23C532.137 138.23 527.096 143.272 527.096 149.49C527.096 155.709 532.137 160.75 538.356 160.75Z" fill="white"/>
<path d="M240.162 267.9C240.162 254.313 229.152 243.318 215.581 243.318C202.01 243.318 191 254.328 191 267.9C191 271.804 191.921 275.49 193.529 278.769L193.545 278.801C194.576 280.862 195.872 282.767 197.418 284.454L211.239 309.738H214.691L235.462 282.517L235.383 282.486C238.398 278.41 240.178 273.366 240.178 267.9H240.162Z" fill="#7F343F"/>
<path d="M236.711 267.9C236.711 254.313 225.701 243.318 212.13 243.318C198.558 243.318 187.548 254.328 187.548 267.9C187.548 271.804 188.47 275.49 190.078 278.769L190.094 278.801C191.125 280.862 192.421 282.767 193.967 284.454L211.24 309.738L232.01 282.517L231.932 282.486C234.946 278.41 236.727 273.366 236.727 267.9H236.711Z" fill="#BC5860"/>
<path d="M212.114 279.066C218.333 279.066 223.374 274.025 223.374 267.806C223.374 261.587 218.333 256.546 212.114 256.546C205.895 256.546 200.854 261.587 200.854 267.806C200.854 274.025 205.895 279.066 212.114 279.066Z" fill="white"/>
<path d="M235.29 304.069C235.29 304.069 315.406 300.336 332.428 381.421C354.339 485.774 443.279 410.906 440.077 355.246" stroke="white" stroke-width="6.24686" stroke-linecap="round" stroke-linejoin="round"/>
<path d="M477.824 327.307C498.22 286.281 610.773 306.474 544.197 208.304" stroke="white" stroke-width="6.24686" stroke-linecap="round" stroke-linejoin="round"/>
<path d="M489.256 323.309C489.256 309.722 478.245 298.728 464.674 298.728C451.103 298.728 440.093 309.738 440.093 323.309C440.093 327.213 441.014 330.899 442.623 334.179L442.638 334.21C443.669 336.271 444.965 338.177 446.511 339.863L460.333 365.148H463.784L484.555 337.927L484.477 337.896C487.491 333.82 489.271 328.775 489.271 323.309H489.256Z" fill="#7F343F"/>
<path d="M485.804 323.309C485.804 309.722 474.794 298.728 461.223 298.728C447.652 298.728 436.642 309.738 436.642 323.309C436.642 327.213 437.563 330.899 439.172 334.179L439.187 334.21C440.218 336.271 441.514 338.177 443.06 339.863L460.333 365.148L481.104 337.927L481.026 337.896C484.04 333.82 485.82 328.775 485.82 323.309H485.804Z" fill="#BC5860"/>
<path d="M461.223 334.491C467.442 334.491 472.483 329.45 472.483 323.231C472.483 317.012 467.442 311.971 461.223 311.971C455.004 311.971 449.963 317.012 449.963 323.231C449.963 329.45 455.004 334.491 461.223 334.491Z" fill="white"/>
<g filter="url(#filter1_d_29_2856)">
<path d="M786.705 377.237C791.13 375.391 794.763 372.226 797.254 368.124C800.331 362.995 801.239 356.959 799.804 351.157C799.247 348.871 798.338 346.732 797.137 344.798L809.093 324.959C812.463 319.362 813.459 312.798 811.877 306.439C810.294 300.109 806.338 294.747 800.741 291.377L797.078 289.179L801.298 280.798C806.221 280.358 810.91 279.245 815.188 277.457C822.983 274.205 829.342 268.783 833.532 261.809C834.206 260.666 834.822 259.494 835.408 258.205C836.287 257.062 837.078 255.89 837.811 254.717C850.294 233.941 839.774 204.578 814.338 189.252C802.998 182.425 790.133 179.201 778.119 180.168C773.02 180.579 768.214 181.721 763.789 183.568C755.994 186.82 749.665 192.241 745.474 199.216C744.771 200.417 744.126 201.648 743.511 202.937C742.632 204.08 741.87 205.194 741.196 206.307C734.514 217.414 734.016 230.835 739.496 243.67L734.075 251.289L730.412 249.091C723.76 245.076 715.525 244.49 708.346 247.479C703.511 249.501 699.555 252.93 696.83 257.443L684.874 277.311C681.445 277.076 677.987 277.633 674.764 278.981C670.339 280.827 666.705 283.992 664.214 288.095C661.137 293.223 660.229 299.259 661.665 305.062C663.101 310.864 666.734 315.787 671.863 318.864L766.485 375.801C772.58 379.464 780.141 380.021 786.705 377.266V377.237Z" fill="white"/>
</g>
<path d="M793.183 303.883L722.831 261.544C718.186 258.749 712.178 260.263 709.398 264.883L683.182 308.445L770.331 360.893L796.547 317.33C799.343 312.686 797.828 306.678 793.208 303.898L793.183 303.883Z" fill="#FF75D4"/>
<path d="M754.207 341.955L795.848 258.966C808.712 260.578 819.76 256.212 825.21 247.186C829.401 240.241 829.606 231.567 825.826 222.805C822.251 214.542 815.481 207.099 806.719 201.824C788.199 190.659 766.339 192.886 757.987 206.747C752.566 215.773 753.885 227.582 761.328 238.19L707.497 313.853C706.09 315.816 706.559 318.571 708.522 319.977C710.485 321.384 713.24 320.915 714.647 318.952L770.324 240.652C771.467 239.04 771.408 236.871 770.148 235.318C763.438 227.142 761.621 217.677 765.489 211.26C771.35 201.531 787.789 200.681 802.177 209.326C809.357 213.663 814.895 219.67 817.738 226.263C820.375 232.359 820.346 238.19 817.65 242.644C813.782 249.091 804.58 251.904 794.207 249.794C792.273 249.413 790.309 250.351 789.43 252.139L746.353 337.999L754.207 341.926V341.955Z" fill="#4144FD"/>
<path d="M679.424 306.292L774.046 363.23C777.709 365.428 782.486 364.255 784.683 360.592C786.881 356.929 785.709 352.153 782.046 349.955L687.424 293.018C683.761 290.82 678.984 291.992 676.786 295.655C674.589 299.318 675.761 304.095 679.424 306.292Z" fill="#DE3AAB"/>
<defs>
<filter id="filter0_d_29_2856" x="128" y="68" width="618.221" height="474.012" filterUnits="userSpaceOnUse" color-interpolation-filters="sRGB">
<feFlood flood-opacity="0" result="BackgroundImageFix"/>
<feColorMatrix in="SourceAlpha" type="matrix" values="0 0 0 0 0 0 0 0 0 0 0 0 0 0 0 0 0 0 127 0" result="hardAlpha"/>
<feOffset dx="7.58993" dy="7.58993"/>
<feColorMatrix type="matrix" values="0 0 0 0 0 0 0 0 0 0 0 0 0 0 0 0 0 0 0.15 0"/>
<feBlend mode="normal" in2="BackgroundImageFix" result="effect1_dropShadow_29_2856"/>
<feBlend mode="normal" in="SourceGraphic" in2="effect1_dropShadow_29_2856" result="shape"/>
</filter>
<filter id="filter1_d_29_2856" x="658.773" y="175.546" width="199.883" height="216.817" filterUnits="userSpaceOnUse" color-interpolation-filters="sRGB">
<feFlood flood-opacity="0" result="BackgroundImageFix"/>
<feColorMatrix in="SourceAlpha" type="matrix" values="0 0 0 0 0 0 0 0 0 0 0 0 0 0 0 0 0 0 127 0" result="hardAlpha"/>
<feOffset dx="6.68129" dy="4.45419"/>
<feGaussianBlur stdDeviation="4.45419"/>
<feColorMatrix type="matrix" values="0 0 0 0 0.168627 0 0 0 0 0.172549 0 0 0 0 0.811765 0 0 0 1 0"/>
<feBlend mode="normal" in2="BackgroundImageFix" result="effect1_dropShadow_29_2856"/>
<feBlend mode="normal" in="SourceGraphic" in2="effect1_dropShadow_29_2856" result="shape"/>
</filter>
</defs>
</svg>
