<svg width="115" height="218" viewBox="0 0 115 218" fill="none" xmlns="http://www.w3.org/2000/svg">
<path opacity="0.1" fill-rule="evenodd" clip-rule="evenodd" d="M114.221 108.623C114.221 168.615 64.6989 217.247 3.61045 217.247C-57.478 217.247 -107 168.615 -107 108.623C-107 48.6324 -57.478 0 3.61045 0C64.6989 0 114.221 48.6324 114.221 108.623ZM101.874 108.623C101.874 161.758 58.1102 204.833 4.12502 204.833C-49.8601 204.833 -93.6237 161.758 -93.6237 108.623C-93.6237 55.4883 -49.8601 12.414 4.12502 12.414C58.1102 12.414 101.874 55.4883 101.874 108.623ZM3.6105 190.35C49.3558 190.35 86.4397 153.76 86.4397 108.624C86.4397 63.4874 49.3558 26.8973 3.6105 26.8973C-42.1348 26.8973 -79.2187 63.4874 -79.2187 108.624C-79.2187 153.76 -42.1348 190.35 3.6105 190.35Z" fill="#7F56D9"/>
</svg>
