<svg width="199" height="269" viewBox="0 0 199 269" fill="none" xmlns="http://www.w3.org/2000/svg">
<path fill-rule="evenodd" clip-rule="evenodd" d="M198.037 134.066C198.037 208.109 136.915 268.132 61.5184 268.132C-13.8786 268.132 -75 208.109 -75 134.066C-75 60.0234 -13.8786 0 61.5184 0C136.915 0 198.037 60.0234 198.037 134.066ZM182.797 134.066C182.797 199.647 128.783 252.81 62.1532 252.81C-4.47669 252.81 -58.4909 199.647 -58.4909 134.066C-58.4909 68.4855 -4.47669 15.322 62.1532 15.322C128.783 15.322 182.797 68.4855 182.797 134.066ZM61.5184 234.935C117.979 234.935 163.749 189.774 163.749 134.066C163.749 78.3579 117.979 33.1974 61.5184 33.1974C5.05832 33.1974 -40.7116 78.3579 -40.7116 134.066C-40.7116 189.774 5.05832 234.935 61.5184 234.935Z" fill="#7F56D9"/>
</svg>
