<svg width="254" height="449" viewBox="0 0 254 449" fill="none" xmlns="http://www.w3.org/2000/svg">
<path fill-rule="evenodd" clip-rule="evenodd" d="M456.278 224.041C456.278 347.775 354.137 448.082 228.139 448.082C102.141 448.082 0 347.775 0 224.041C0 100.306 102.141 0 228.139 0C354.137 0 456.278 100.306 456.278 224.041ZM430.812 224.041C430.812 333.634 340.547 422.477 229.2 422.477C117.854 422.477 27.5891 333.634 27.5891 224.041C27.5891 114.448 117.854 25.6046 229.2 25.6046C340.547 25.6046 430.812 114.448 430.812 224.041ZM228.139 392.605C322.491 392.605 398.978 317.136 398.978 224.041C398.978 130.946 322.491 55.4769 228.139 55.4769C133.787 55.4769 57.3002 130.946 57.3002 224.041C57.3002 317.136 133.787 392.605 228.139 392.605Z" fill="#7F56D9"/>
</svg>
