<svg width="242" height="398" viewBox="0 0 242 398" fill="none" xmlns="http://www.w3.org/2000/svg">
<path opacity="0.1" fill-rule="evenodd" clip-rule="evenodd" d="M404 198.876C404 308.433 313.562 397.247 202 397.247C90.4385 397.247 0 308.433 0 198.876C0 89.3182 90.4385 0.504395 202 0.504395C313.562 0.504395 404 89.3182 404 198.876ZM381.452 198.875C381.452 295.912 301.529 374.576 202.94 374.576C104.351 374.576 24.4285 295.912 24.4285 198.875C24.4285 101.839 104.351 23.1751 202.94 23.1751C301.529 23.1751 381.452 101.839 381.452 198.875ZM202 348.126C285.542 348.126 353.266 281.304 353.266 198.875C353.266 116.446 285.542 49.6246 202 49.6246C118.459 49.6246 50.7354 116.446 50.7354 198.875C50.7354 281.304 118.459 348.126 202 348.126Z" fill="#7F56D9"/>
</svg>
